<svg width="25" height="30" viewBox="0 0 25 30" fill="none" xmlns="http://www.w3.org/2000/svg">
<path d="M24 12.4545C24 21.3636 12.5 29 12.5 29C12.5 29 1 21.3636 1 12.4545C1 9.41661 2.2116 6.5031 4.36827 4.35496C6.52494 2.20681 9.45001 1 12.5 1C15.55 1 18.4751 2.20681 20.6317 4.35496C22.7884 6.5031 24 9.41661 24 12.4545Z" stroke="#7A7A7A" stroke-width="2" stroke-linecap="round" stroke-linejoin="round"/>
<path d="M12.5 16.2721C14.6171 16.2721 16.3333 14.5626 16.3333 12.4539C16.3333 10.3452 14.6171 8.63574 12.5 8.63574C10.3829 8.63574 8.66663 10.3452 8.66663 12.4539C8.66663 14.5626 10.3829 16.2721 12.5 16.2721Z" stroke="#7A7A7A" stroke-width="2" stroke-linecap="round" stroke-linejoin="round"/>
</svg>
