<svg width="32" height="32" viewBox="0 0 32 32" fill="none" xmlns="http://www.w3.org/2000/svg">
<path fill-rule="evenodd" clip-rule="evenodd" d="M23.6739 0.420898H7.8913C3.53306 0.420898 0 3.92172 0 8.2402V23.8788C0 28.1973 3.53306 31.6981 7.8913 31.6981H23.6739C28.0322 31.6981 31.5652 28.1973 31.5652 23.8788V8.2402C31.5652 3.92172 28.0322 0.420898 23.6739 0.420898ZM22.0957 15.0752C22.2904 16.3767 22.0661 17.7059 21.4545 18.8738C20.8429 20.0417 19.8753 20.9888 18.6892 21.5803C17.5031 22.1719 16.1589 22.3778 14.8479 22.1688C13.5369 21.9597 12.3258 21.3464 11.3869 20.416C10.448 19.4856 9.82898 18.2856 9.61803 16.9866C9.40707 15.6875 9.61487 14.3556 10.2119 13.1804C10.8089 12.0051 11.7646 11.0463 12.9433 10.4403C14.1219 9.83428 15.4634 9.61197 16.7769 9.80497C18.1167 10.0018 19.3571 10.6205 20.3149 11.5695C21.2726 12.5185 21.897 13.7476 22.0957 15.0752ZM24.4631 5.88072C23.5915 5.88072 22.8849 6.58734 22.8849 7.45898C22.8849 8.33063 23.5915 9.03724 24.4631 9.03724H24.478C25.3496 9.03724 26.0562 8.33063 26.0562 7.45898C26.0562 6.58734 25.3496 5.88072 24.478 5.88072H24.4631Z" fill="#FFF500"/>
</svg>
