<svg width="36" height="36" viewBox="0 0 36 36" fill="none" xmlns="http://www.w3.org/2000/svg">
<path d="M25.6739 2.4209H9.8913C5.53306 2.4209 2 5.92172 2 10.2402V25.8788C2 30.1973 5.53306 33.6981 9.8913 33.6981H25.6739C30.0322 33.6981 33.5652 30.1973 33.5652 25.8788V10.2402C33.5652 5.92172 30.0322 2.4209 25.6739 2.4209Z" stroke="white" stroke-width="3.15652" stroke-linecap="round" stroke-linejoin="round"/>
<path d="M24.0957 17.0752C24.2904 18.3767 24.0661 19.7059 23.4545 20.8738C22.8429 22.0417 21.8753 22.9888 20.6892 23.5803C19.5031 24.1719 18.1589 24.3778 16.8479 24.1688C15.5369 23.9597 14.3258 23.3464 13.3869 22.416C12.448 21.4856 11.829 20.2856 11.618 18.9866C11.4071 17.6875 11.6149 16.3556 12.2119 15.1804C12.8089 14.0051 13.7646 13.0463 14.9433 12.4403C16.1219 11.8343 17.4634 11.612 18.7769 11.805C20.1167 12.0018 21.3571 12.6205 22.3149 13.5695C23.2726 14.5185 23.897 15.7476 24.0957 17.0752Z" stroke="white" stroke-width="3.15652" stroke-linecap="round" stroke-linejoin="round"/>
<path d="M26.4631 9.45898H26.478" stroke="white" stroke-width="3.15652" stroke-linecap="round" stroke-linejoin="round"/>
</svg>
