<svg width="37" height="31" viewBox="0 0 37 31" fill="none" xmlns="http://www.w3.org/2000/svg">
<path d="M35.4234 2.01514C33.9686 3.03199 32.3577 3.80972 30.653 4.31838C29.738 3.27591 28.522 2.53704 27.1694 2.20169C25.8168 1.86635 24.3929 1.9507 23.0903 2.44335C21.7877 2.936 20.6692 3.81317 19.8861 4.95623C19.1029 6.09929 18.693 7.45309 18.7117 8.83453V10.3399C16.0418 10.4085 13.3963 9.82178 11.0107 8.63197C8.62504 7.44217 6.57341 5.68622 5.03849 3.52052C5.03849 3.52052 -1.03849 17.069 12.6347 23.0905C9.50588 25.195 5.7786 26.2502 2 26.1013C15.6732 33.6282 32.3849 26.1013 32.3849 8.78937C32.3835 8.37005 32.3428 7.95176 32.2634 7.5399C33.8139 6.02472 34.9081 4.11171 35.4234 2.01514V2.01514Z" fill="#FFF500" stroke="#FFF500" stroke-width="3.03849" stroke-linecap="round" stroke-linejoin="round"/>
</svg>
