<svg width="37" height="31" viewBox="0 0 37 31" fill="none" xmlns="http://www.w3.org/2000/svg">
<path d="M35.0321 2.43604C33.5772 3.45289 31.9664 4.23062 30.2616 4.73927C29.3466 3.69681 28.1306 2.95794 26.778 2.62259C25.4255 2.28724 24.0016 2.3716 22.6989 2.86425C21.3963 3.3569 20.2778 4.23407 19.4947 5.37713C18.7116 6.52019 18.3017 7.87399 18.3204 9.25543V10.7608C15.6505 10.8294 13.0049 10.2427 10.6193 9.05287C8.23369 7.86307 6.18206 6.10712 4.64714 3.94142C4.64714 3.94142 -1.42985 17.4899 12.2434 23.5114C9.11452 25.6159 5.38725 26.6711 1.60864 26.5222C15.2819 34.0491 31.9936 26.5222 31.9936 9.21027C31.9922 8.79095 31.9515 8.37266 31.872 7.9608C33.4226 6.44562 34.5168 4.5326 35.0321 2.43604V2.43604Z" stroke="white" stroke-width="3.03849" stroke-linecap="round" stroke-linejoin="round"/>
</svg>
